<svg xmlns="http://www.w3.org/2000/svg" width="191" height="44" viewBox="0 0 191 44" fill="none"><path d="M65.9771 19.4095C65.1133 17.8834 63.3551 16.7236 60.6315 16.7236C58.5074 16.7236 56.6883 17.4663 55.2249 18.9619C53.7614 20.4574 53.0195 22.3396 53.0195 24.5778C53.0195 26.8161 53.7614 28.6982 55.2249 30.1938C56.6883 31.6588 58.5074 32.4015 60.6315 32.4015C63.3449 32.4015 65.1133 31.2315 65.9771 29.7156V30.967C65.9771 33.2052 65.469 34.7618 64.4222 35.6266C63.4974 36.3693 62.2778 36.7356 60.6924 36.7356C58.5684 36.7356 56.5765 36.0743 54.7269 34.7313L53.5886 36.4914C55.7127 38.0175 58.0704 38.7907 60.7229 38.7907C62.786 38.7907 64.4527 38.2515 65.7942 37.2036C66.8105 36.3998 67.4609 35.4435 67.7353 34.304C68.03 33.1951 68.1824 31.6486 68.1824 29.7054V17.1713H65.9771V19.4095ZM64.6356 28.7084C63.5888 29.8072 62.2474 30.3464 60.6315 30.3464C59.0766 30.3464 57.7961 29.8072 56.7493 28.6982C55.733 27.5893 55.2249 26.2158 55.2249 24.5778C55.2249 22.9297 55.733 21.5562 56.7493 20.4574C57.7961 19.3485 59.0766 18.7889 60.6315 18.7889C62.2474 18.7889 63.5888 19.3587 64.6356 20.4574C65.7129 21.5664 66.2515 22.9398 66.2515 24.5778C66.2413 26.226 65.7027 27.5995 64.6356 28.7084Z" fill="#453181"></path><path d="M77.9796 16.7236C75.7438 16.7236 73.8636 17.4968 72.3087 19.0229C70.7538 20.549 69.9814 22.4312 69.9814 24.6999C69.9814 26.9687 70.7538 28.8814 72.3087 30.4074C73.8636 31.9335 75.7438 32.6762 77.9796 32.6762C80.2154 32.6762 82.0955 31.9335 83.6504 30.4074C85.2053 28.8814 85.9777 26.9687 85.9777 24.6999C85.9777 22.4312 85.2053 20.549 83.6504 19.0229C82.0955 17.4968 80.2154 16.7236 77.9796 16.7236ZM82.126 28.9424C81.0183 30.0514 79.6463 30.6211 77.9796 30.6211C76.3027 30.6211 74.9307 30.0514 73.8331 28.9424C72.7254 27.8029 72.1868 26.3989 72.1868 24.6999C72.1868 23.0009 72.7254 21.5969 73.8331 20.488C74.9409 19.3485 76.3129 18.7889 77.9796 18.7889C79.6463 18.7889 81.0284 19.3587 82.126 20.488C83.2337 21.5969 83.7724 23.0009 83.7724 24.6999C83.7724 26.4091 83.2337 27.8131 82.126 28.9424Z" fill="#453181"></path><path d="M102.685 28.8508V17.1713H100.48V19.4095C99.6157 17.8834 97.8575 16.7236 95.1339 16.7236C93.0099 16.7236 91.1907 17.4968 89.7273 19.0229C88.2639 20.549 87.522 22.4312 87.522 24.6999C87.522 26.9687 88.2639 28.8814 89.7273 30.4074C91.1907 31.9335 93.0099 32.6762 95.1339 32.6762C97.6441 32.6762 99.4633 31.7809 100.602 30.0208C100.693 31.0077 101.049 31.7199 101.618 32.1675C102.004 32.432 102.543 32.5846 103.203 32.5846C103.772 32.5846 104.25 32.4931 104.606 32.3405V30.672C104.341 30.7025 104.067 30.733 103.833 30.733C102.98 30.7432 102.685 30.1734 102.685 28.8508ZM99.1279 28.9424C98.0811 30.0514 96.7396 30.6211 95.1238 30.6211C93.5688 30.6211 92.2883 30.0514 91.2416 28.9424C90.2253 27.8029 89.7171 26.3989 89.7171 24.6999C89.7171 23.0009 90.2253 21.5969 91.2416 20.488C92.2883 19.3485 93.5688 18.7889 95.1238 18.7889C96.7396 18.7889 98.0811 19.3587 99.1279 20.488C100.205 21.5969 100.744 23.0009 100.744 24.6999C100.744 26.4091 100.205 27.8131 99.1279 28.9424Z" fill="#453181"></path><path d="M108.549 28.2909V11.4023H106.344V28.4333C106.344 30.2545 106.852 31.516 107.685 32.0145C108.549 32.5232 109.21 32.6758 110.134 32.6758C110.765 32.6758 111.242 32.5843 111.506 32.4317V30.5495C111.293 30.58 110.937 30.6105 110.429 30.6105C109.027 30.6207 108.549 29.9594 108.549 28.2909Z" fill="#453181"></path><path d="M119.454 23.418C117.187 22.5532 116.171 21.9225 116.171 20.7016C116.171 19.4807 117.127 18.7584 118.529 18.7584C119.698 18.7584 120.531 19.2671 121.07 20.254L122.858 19.3281C121.994 17.5986 120.531 16.7236 118.498 16.7236C115.846 16.7236 113.966 18.3921 113.966 20.7016C113.966 22.8788 115.307 24.0183 118.051 25.0967C119.454 25.6664 120.44 26.1446 120.978 26.5312C121.547 26.9178 121.812 27.4876 121.812 28.2302C121.812 29.4002 120.978 30.5295 118.498 30.5295C116.435 30.5295 115.094 29.5427 114.708 28.2608L112.828 28.9729C113.427 31.2722 115.633 32.5846 118.498 32.5846C122.076 32.5846 124.017 30.6109 124.017 28.2201C124.027 25.931 122.564 24.6084 119.454 23.418Z" fill="#453181"></path><path d="M132.757 16.7236C130.582 16.7236 128.753 17.4663 127.351 18.9314C125.948 20.3964 125.227 22.3396 125.227 24.761V24.883C125.227 27.2129 125.918 29.095 127.32 30.499C128.723 31.903 130.572 32.6253 132.808 32.6253C135.288 32.6253 137.32 31.73 138.896 29.97L137.432 28.5355C136.091 29.97 134.861 30.6313 132.808 30.6313C129.678 30.6313 127.554 28.5049 127.432 25.1883H139.637C139.668 24.8932 139.668 24.5575 139.668 24.2319C139.668 22.1056 139.007 20.3455 137.727 18.911C136.456 17.4358 134.82 16.7236 132.757 16.7236ZM127.595 23.2349C127.686 22.014 128.225 20.9661 129.21 20.1013C130.196 19.2366 131.385 18.7889 132.767 18.7889C134.017 18.7889 135.095 19.2366 135.989 20.1013C136.883 20.9661 137.33 22.014 137.33 23.2349H127.595Z" fill="#453181"></path><path d="M152.503 11.4023H150.298V17.1709H148.509H148.428H144.901V11.4023H142.696V17.1709H140.928V19.2362H142.686V28.0264C142.686 31.1294 144.027 32.686 146.721 32.686C147.493 32.686 148.062 32.5944 148.387 32.4418V30.5292C148.001 30.5902 147.554 30.6207 146.985 30.6207C145.521 30.6207 144.891 29.9289 144.891 28.0162V19.226H148.418H148.499H150.288V28.0162C150.288 31.1192 151.629 32.6758 154.322 32.6758C155.095 32.6758 155.664 32.5843 155.989 32.4317V30.519C155.603 30.58 155.156 30.6105 154.587 30.6105C153.123 30.6105 152.493 29.9187 152.493 28.006V19.2158H155.989V17.1506H152.493V11.4023H152.503Z" fill="#453181"></path><path d="M164.017 16.7236C161.843 16.7236 160.013 17.4663 158.611 18.9314C157.208 20.3964 156.487 22.3396 156.487 24.761V24.883C156.487 27.2129 157.178 29.095 158.58 30.499C159.983 31.903 161.832 32.6253 164.068 32.6253C166.548 32.6253 168.581 31.73 170.156 29.97L168.692 28.5355C167.351 29.97 166.121 30.6313 164.068 30.6313C160.938 30.6313 158.814 28.5049 158.692 25.1883H170.898C170.928 24.8932 170.928 24.5575 170.928 24.2319C170.928 22.1056 170.268 20.3455 168.987 18.911C167.727 17.4358 166.081 16.7236 164.017 16.7236ZM158.855 23.2349C158.946 22.014 159.485 20.9661 160.471 20.1013C161.456 19.2366 162.645 18.7889 164.028 18.7889C165.278 18.7889 166.355 19.2366 167.249 20.1013C168.144 20.9661 168.591 22.014 168.591 23.2349H158.855Z" fill="#453181"></path><path d="M179.668 16.9268C177.493 16.9268 175.847 18.0357 175.044 19.7042V17.1608H172.839V32.218H175.044V23.4584C175.044 20.9454 176.741 19.2159 179.099 19.2159C179.699 19.2159 180.207 19.2769 180.593 19.3685V16.9776C180.319 16.9573 179.993 16.9268 179.668 16.9268Z" fill="#453181"></path><path d="M187.026 18.9212C185.929 18.9212 184.973 18.555 184.221 17.8225C183.459 17.09 183.104 16.1641 183.104 15.0348C183.104 13.9157 183.469 12.9797 184.221 12.2472C184.973 11.5147 185.929 11.1484 187.026 11.1484C188.124 11.1484 189.079 11.5147 189.831 12.2472C190.614 12.9797 191 13.9055 191 15.0348C191 16.154 190.614 17.09 189.831 17.8225C189.069 18.555 188.124 18.9212 187.026 18.9212ZM187.026 11.8403C185.197 11.8403 183.876 13.1629 183.876 15.045C183.876 16.9068 185.197 18.1989 187.026 18.1989C188.856 18.1989 190.197 16.9068 190.197 15.045C190.197 13.1527 188.856 11.8403 187.026 11.8403ZM185.583 17.1815V12.7152H187.169C188.022 12.7152 188.612 13.3053 188.612 14.109C188.612 14.6991 188.368 15.1366 187.88 15.4011L188.957 17.1815H187.982L187.006 15.5435H186.417V17.1815H185.583ZM186.417 14.8619H187.148C187.514 14.8619 187.778 14.5465 187.778 14.1497C187.778 13.7835 187.504 13.4884 187.148 13.4884H186.417V14.8619Z" fill="#453181"></path><path d="M30.7014 28.6681C28.242 28.6681 25.9046 27.9152 23.9533 26.5723C23.1708 27.081 22.2663 27.3557 21.311 27.3557C20.3557 27.3557 19.4411 27.081 18.6585 26.5723C16.7073 27.9254 14.3698 28.6681 11.9002 28.6681C9.53232 28.6681 7.31682 27.9661 5.45703 26.7656V42.067C5.45703 43.1353 6.32087 44 7.38796 44H21.311C30.0409 44 37.1447 36.8885 37.1447 28.1492V26.7656C35.2849 27.9661 33.0694 28.6681 30.7014 28.6681Z" fill="#453181"></path><path d="M21.8906 24.7612L21.9015 24.7721C21.9015 24.7721 21.9015 24.7721 21.8906 24.7612Z" fill="#453181"></path><path d="M20.7114 24.7816C20.7216 24.7714 20.7216 24.7714 20.7318 24.7612C20.7216 24.7612 20.7114 24.7714 20.7114 24.7816Z" fill="#453181"></path><path d="M18.11 42.4028C17.7137 36.4918 12.9778 31.7508 7.07324 31.354V41.6703C7.07324 42.0772 7.39845 42.4028 7.80496 42.4028H18.11Z" fill="#54C6DE"></path><path d="M21.3113 24.0693C20.5592 25.0257 19.6649 25.8701 18.6689 26.5619C19.4515 27.0808 20.3661 27.3555 21.3214 27.3555C22.2767 27.3555 23.1812 27.0808 23.9638 26.5721C22.9577 25.8803 22.0633 25.0359 21.3113 24.0693Z" fill="#F3B73A"></path><path d="M30.7018 4.81055C26.9924 4.81055 23.5574 6.50958 21.3114 9.40912C19.0553 6.50958 15.6202 4.81055 11.9108 4.81055C5.34564 4.81055 0 10.162 0 16.7445C0 23.3168 5.34564 28.6682 11.9108 28.6682C13.7503 28.6682 15.5288 28.2511 17.1243 27.4677L17.7849 27.9052C18.8317 28.597 20.0512 28.9531 21.3114 28.9531C22.5716 28.9531 23.7911 28.5868 24.8277 27.9052L25.4883 27.4677C27.0839 28.2409 28.8522 28.658 30.6917 28.658C37.2568 28.658 42.6025 23.3066 42.6025 16.7343C42.6228 10.162 37.2772 4.81055 30.7018 4.81055ZM21.3216 27.3558C20.3663 27.3558 19.4516 27.0811 18.6691 26.5724C19.411 26.0637 20.102 25.4634 20.7118 24.7818C20.722 24.7716 20.722 24.7716 20.7321 24.7614C20.9354 24.5376 21.1285 24.3138 21.3114 24.0696C21.4943 24.3138 21.6976 24.5376 21.9008 24.7614C21.9008 24.7716 21.911 24.7716 21.911 24.7818C22.5309 25.4634 23.222 26.0637 23.9639 26.5724C23.1814 27.0811 22.2667 27.3558 21.3216 27.3558ZM30.7018 27.0607C28.6998 27.0607 26.7993 26.491 25.1733 25.4634L24.8684 25.2498C24.218 24.8021 23.6184 24.2833 23.0899 23.6932C23.0797 23.683 23.0696 23.6728 23.0696 23.6627C22.9171 23.4999 22.7748 23.3269 22.6326 23.1438C22.409 22.8589 22.1854 22.5639 21.9923 22.2485L21.3114 21.1802L20.6305 22.2485C20.4272 22.5639 20.2138 22.8589 19.9902 23.1438C19.848 23.3168 19.7057 23.4897 19.5532 23.6525C19.5431 23.6627 19.5329 23.6728 19.5227 23.683C18.9943 24.2629 18.3947 24.7818 17.7443 25.2294L17.4597 25.4227C15.8337 26.4706 13.9129 27.0404 11.9006 27.0404C6.20947 27.0404 1.5854 22.4113 1.5854 16.7139C1.5854 11.0166 6.20947 6.38749 11.9006 6.38749C15.4576 6.38749 18.7199 8.18826 20.6203 11.1997L21.3012 12.268L21.9821 11.1997C23.8826 8.18826 27.1449 6.38749 30.7018 6.38749C36.393 6.38749 41.0171 11.0166 41.0171 16.7139C41.0171 22.4316 36.393 27.0607 30.7018 27.0607Z" fill="#342663"></path><path d="M30.702 6.41797C27.145 6.41797 23.8827 8.21874 21.9823 11.2302L21.3014 12.2984L20.6205 11.2302C18.72 8.21874 15.4578 6.41797 11.9008 6.41797C6.22994 6.41797 1.5957 11.0471 1.5957 16.7444C1.5957 22.4418 6.21978 27.0709 11.911 27.0709C15.4679 27.0709 18.7302 25.2701 20.6306 22.2586L21.3115 21.1904L21.9925 22.2586C23.8929 25.2701 27.1552 27.0709 30.7121 27.0709C36.4033 27.0709 41.0274 22.4418 41.0274 16.7444C41.0172 11.0471 36.3932 6.41797 30.702 6.41797Z" fill="white"></path><path d="M11.5957 12.2578C11.4941 12.2578 11.3925 12.268 11.2909 12.268C11.8295 12.6953 12.175 13.3566 12.175 14.0993C12.175 15.3914 11.1283 16.4393 9.83758 16.4393C9.33961 16.4393 8.87212 16.2765 8.49609 16.012V18.9115C8.49609 20.6309 9.8884 22.0145 11.5957 22.0145C13.3133 22.0145 14.6954 20.6207 14.6954 18.9115V15.3608C14.6954 13.6516 13.3133 12.2578 11.5957 12.2578Z" fill="#161228"></path><path d="M31.0171 12.2578C30.9155 12.2578 30.8139 12.268 30.7123 12.268C31.2509 12.6953 31.5964 13.3566 31.5964 14.0993C31.5964 15.3914 30.5496 16.4393 29.259 16.4393C28.761 16.4393 28.2935 16.2765 27.9175 16.012V18.9115C27.9175 20.6309 29.3098 22.0145 31.0171 22.0145C32.7347 22.0145 34.1168 20.6207 34.1168 18.9115V15.3608C34.127 13.6516 32.7347 12.2578 31.0171 12.2578Z" fill="#161228"></path><path d="M10.6913 4.87143C11.0978 4.83074 11.5043 4.81039 11.9109 4.81039C15.6203 4.81039 19.0553 6.50942 21.3013 9.40896C23.5574 6.50942 26.9925 4.81039 30.7019 4.81039C31.1084 4.81039 31.5048 4.83074 31.9011 4.87143C34.5434 4.63743 36.3931 2.77562 36.7183 0.944331C36.7589 0.710333 36.515 0.51703 36.3016 0.628942C35.9256 0.812071 35.3361 1.07659 34.4926 1.36146C34.269 1.44285 34.0455 1.2292 34.1166 0.9952C34.1877 0.78155 34.2284 0.567899 34.2589 0.344075C34.2894 0.0999029 34.0353 -0.0730522 33.8219 0.0388599C32.6328 0.710333 29.025 2.38902 22.033 3.13171C22.0229 3.13171 22.0127 3.13171 22.0025 3.13171C21.7688 3.13171 21.535 3.14188 21.2911 3.14188C21.0472 3.14188 20.8135 3.14188 20.5797 3.13171C20.5696 3.13171 20.5594 3.13171 20.5492 3.13171C13.5572 2.39919 9.94944 0.710333 8.76039 0.0388599C8.54697 -0.0832261 8.2929 0.0999029 8.32339 0.344075C8.35388 0.557725 8.39453 0.771376 8.46567 0.9952C8.53681 1.21902 8.31323 1.43268 8.08964 1.36146C7.24613 1.07659 6.64653 0.812071 6.28066 0.628942C6.06725 0.527204 5.81318 0.710333 5.86399 0.944331C6.16887 2.7858 8.02867 4.65778 10.6913 4.87143Z" fill="#342663"></path></svg>